<?xml version="1.0" encoding="utf-8"?>
<!-- Generator: Adobe Illustrator 16.0.0, SVG Export Plug-In . SVG Version: 6.00 Build 0)  -->
<!DOCTYPE svg PUBLIC "-//W3C//DTD SVG 1.1//EN" "http://www.w3.org/Graphics/SVG/1.1/DTD/svg11.dtd">
<svg version="1.1" id="Ebene_1" xmlns="http://www.w3.org/2000/svg" xmlns:xlink="http://www.w3.org/1999/xlink" x="0px" y="0px"
	 width="63px" height="63px" viewBox="0 0 63 63" enable-background="new 0 0 63 63" xml:space="preserve">
<rect fill="#5286C1" width="63" height="63"/>
<g>
	<linearGradient id="SVGID_1_" gradientUnits="userSpaceOnUse" x1="27.5601" y1="33.959" x2="37.859" y2="23.66">
		<stop  offset="0" style="stop-color:#FBDF12"/>
		<stop  offset="0.2478" style="stop-color:#FBDF14"/>
		<stop  offset="0.3878" style="stop-color:#FBE01D"/>
		<stop  offset="0.501" style="stop-color:#FBE22A"/>
		<stop  offset="0.5998" style="stop-color:#FCE53E"/>
		<stop  offset="0.6893" style="stop-color:#FCE858"/>
		<stop  offset="0.772" style="stop-color:#FDED77"/>
		<stop  offset="0.8496" style="stop-color:#FDF29D"/>
		<stop  offset="0.9231" style="stop-color:#FEF8C8"/>
		<stop  offset="0.9908" style="stop-color:#FFFEF8"/>
		<stop  offset="1" style="stop-color:#FFFFFF"/>
	</linearGradient>
	<circle fill="url(#SVGID_1_)" cx="32.709" cy="28.809" r="7.282"/>
	<line fill="#FFFFFF" stroke="#FFE200" stroke-width="2.5696" x1="31.956" y1="16.337" x2="31.956" y2="7.111"/>
	<line fill="#FFFFFF" stroke="#FFE200" stroke-width="2.5696" x1="31.956" y1="50.795" x2="31.956" y2="41.57"/>
	<line fill="#FFFFFF" stroke="#FFE200" stroke-width="2.5696" x1="23.035" y1="20.033" x2="16.511" y2="13.508"/>
	<line fill="#FFFFFF" stroke="#FFE200" stroke-width="2.5696" x1="47.401" y1="44.398" x2="40.877" y2="37.875"/>
	<line fill="#FFFFFF" stroke="#FFE200" stroke-width="2.5696" x1="19.342" y1="28.954" x2="10.114" y2="28.954"/>
	<line fill="#FFFFFF" stroke="#FFE200" stroke-width="2.5696" x1="52.71" y1="28.954" x2="44.571" y2="28.954"/>
	<line fill="#FFFFFF" stroke="#FFE200" stroke-width="2.5696" x1="23.035" y1="37.875" x2="16.513" y2="44.398"/>
	<line fill="#FFFFFF" stroke="#FFE200" stroke-width="2.5696" x1="47.402" y1="13.508" x2="40.875" y2="20.034"/>
</g>
<g opacity="0.85">
	<path fill="#CBCACA" d="M44.541,51.066c5.232,0,9.475-4.242,9.475-9.477c0-3.279-1.666-6.168-4.199-7.869
		c-0.148-5.102-4.324-9.191-9.461-9.191c-3.545,0-6.633,1.951-8.256,4.836c-0.701-0.389-1.494-0.629-2.351-0.629
		c-2.645,0-4.784,2.107-4.862,4.732c-2.76,1.658-4.611,4.67-4.611,8.121c0,5.234,4.242,9.477,9.474,9.477H44.541z"/>
</g>
<g opacity="0.9">
	<linearGradient id="SVGID_2_" gradientUnits="userSpaceOnUse" x1="31.8916" y1="55.6006" x2="15.9142" y2="31.9131">
		<stop  offset="0.0613" style="stop-color:#FCFCFD;stop-opacity:0"/>
		<stop  offset="0.8098" style="stop-color:#FCFCFD"/>
	</linearGradient>
	<path fill="url(#SVGID_2_)" d="M31.102,54.361c4.958,0,8.98-4.24,8.98-9.475c0-3.279-1.58-6.168-3.98-7.869
		c-0.143-5.102-4.098-9.191-8.965-9.191c-3.36,0-6.286,1.951-7.824,4.836c-0.664-0.389-1.416-0.629-2.228-0.629
		c-2.508,0-4.535,2.107-4.61,4.732c-2.614,1.656-4.369,4.668-4.369,8.121c0,5.234,4.021,9.475,8.979,9.475H31.102z"/>
</g>
</svg>
